# xmcd
#
# Track frame offsets: 
#        150
#        13675
#        26002
#        37787
#        52247
#        60575
#        73302
#        88632
#        98540
#        109527
#        119837
#        134780
#        151857
#        161842
#
# Disc length: 2380 seconds
#
# Revision: 2
# Processed by: cddbd v1.5.2PL0 Copyright (c) Steve Scherf et al.
# Submitted via: ExactAudioCopy v1.0b3
#
DISCID=c0094a0e
DTITLE=Various Artist - Country Collection - Rose Garden
DYEAR=1997
DGENRE=Country
TTITLE0=Lynn Anderson - Rose garden
TTITLE1=Charlie Rich - Behind closed doors
TTITLE2=Donna Fargo - Funny face
TTITLE3=Loretta Lynn - Coal miner's daughter (live)
TTITLE4=Waylon Jennings - Abilene
TTITLE5=Claude King - Wolverton mountain
TTITLE6=Kenny Rogers and The First Edition - For the good times
TTITLE7=Hank Locklin - Please help me I'm falling
TTITLE8=The Jordanaires - Another somebody done somebody wrong song
TTITLE9=George Hamilton IV - Abilene
TTITLE10=La Toya Jackson - What you don't say (with Lee Greenwood)
TTITLE11=Charley McCoy - You were always on my mind
TTITLE12=Don Williams - Take my hand for a while
TTITLE13=Willie Nelson - I let my mind wonder
EXTD=
EXTT0=
EXTT1=
EXTT2=
EXTT3=
EXTT4=
EXTT5=
EXTT6=
EXTT7=
EXTT8=
EXTT9=
EXTT10=
EXTT11=
EXTT12=
EXTT13=
PLAYORDER=
